# xmcd CD database file
#
# Track frame offsets:
#	150
#	24296
#	47224
#	66339
#	93864
#	121484
#	145609
#	165058
#	176484
#	201908
#	222551
#
# Disc length: 3284 seconds
#
# Revision: 0
# Processed by: cddbd v1.5.2PL0 Copyright (c) Steve Scherf et al.
# Submitted via: CDex 1.70beta2
#
DISCID=940cd20b
DTITLE=Jean My Truong - Memoires du futur
DYEAR=2008
DGENRE=Jazz
TTITLE0=Bozania
TTITLE1=Beyond this World
TTITLE2=For Kenny
TTITLE3=Le Messager hors du Temps
TTITLE4=The Golden Ratha
TTITLE5=Goodbye Pork Pie Hat
TTITLE6=Voyage sous les Etoiles
TTITLE7=Le fil d'Or
TTITLE8=Syliate
TTITLE9=The Melody of Time
TTITLE10=Mitra
EXTD=YEAR: 2008
EXTT0=
EXTT1=
EXTT2=
EXTT3=
EXTT4=
EXTT5=
EXTT6=
EXTT7=
EXTT8=
EXTT9=
EXTT10=
PLAYORDER=
